0
SECTION
2
HEADER
9
$ACADVER
1
AC1009
9
$INSUNITS
70
21
9
$EXTMIN
10
0.000000
20
-86.957593
30
0.000000
9
$EXTMAX
10
102.303030
20
98.481931
30
0.000000
0
ENDSEC
0
SECTION
2
TABLES
0
TABLE
2
VPORT
70
1
0
VPORT
2
*ACTIVE
70
0
10
0.000000
20
0.000000
11
1.000000
21
1.000000
12
51.151515
22
5.762169
13
0.000000
23
0.000000
14
1.000000
24
1.000000
15
10.000000
25
10.000000
16
0.000000
26
0.000000
36
1.000000
17
0.000000
27
0.000000
37
0.000000
40
203.983476
41
1.000000
42
50.000000
43
0.000000
44
0.000000
50
0.000000
51
0.000000
71
0
72
1000
73
1
74
3
75
0
76
0
77
0
78
0
0
ENDTAB
0
TABLE
2
LTYPE
70
1
0
LTYPE
2
CONTINUOUS
70
0
3
Solid line
72
65
73
0
40
0.000000
0
ENDTAB
0
TABLE
2
LAYER
70
2
0
LAYER
2
C-PROP-LINE
70
0
62
7
6
CONTINUOUS
0
LAYER
2
A-ANNO-NOTE
70
0
62
7
6
CONTINUOUS
0
ENDTAB
0
TABLE
2
STYLE
70
1
0
STYLE
2
STANDARD
70
0
40
0.000000
41
1.000000
50
0.000000
71
0
42
0.200000
3
txt
4

0
ENDTAB
0
ENDSEC
0
SECTION
2
ENTITIES
0
POLYLINE
8
C-PROP-LINE
66
1
70
1
10
0.000000
20
0.000000
30
0.000000
0
VERTEX
8
C-PROP-LINE
10
0.000000
20
0.000000
30
0.000000
0
VERTEX
8
C-PROP-LINE
10
102.303030
20
0.000000
30
0.000000
0
VERTEX
8
C-PROP-LINE
10
102.303030
20
98.481931
30
0.000000
0
VERTEX
8
C-PROP-LINE
10
0.000000
20
98.481931
30
0.000000
0
SEQEND
8
C-PROP-LINE
0
TEXT
8
A-ANNO-NOTE
10
0.000000
20
-4.092122
30
0.000000
40
2.046061
1
Tax-lot-only estimate
0
TEXT
8
A-ANNO-NOTE
10
0.000000
20
-7.161213
30
0.000000
40
2.046061
1
Queens block 7334, lot 70
0
TEXT
8
A-ANNO-NOTE
10
0.000000
20
-10.230305
30
0.000000
40
2.046061
1
Assumed conditions
0
TEXT
8
A-ANNO-NOTE
10
0.000000
20
-13.299397
30
0.000000
40
2.046061
1
Zoning district R6B city_records Zoning district R6B is read from recorded city data.
0
TEXT
8
A-ANNO-NOTE
10
0.000000
20
-16.368488
30
0.000000
40
2.046061
1
Commercial overlay present Yes city_records A commercial overlay (C2-2) is recorded for this lot in the city's records.
0
TEXT
8
A-ANNO-NOTE
10
0.000000
20
-19.437579
30
0.000000
40
2.046061
1
Special purpose district No city_records The city's records list no special purpose district for this lot.
0
TEXT
8
A-ANNO-NOTE
10
0.000000
20
-22.506671
30
0.000000
40
2.046061
1
Special density area Not known assumed Whether the lot is in a special density area is not known; it is taken to be in one for the calculation, so the legal dwelling-unit limit that depends on it is withheld.
0
TEXT
8
A-ANNO-NOTE
10
0.000000
20
-25.575762
30
0.000000
40
2.046061
1
Lot type corner approximate_tax_map The lot type (corner) is read from the approximate city tax-map outline.
0
TEXT
8
A-ANNO-NOTE
10
0.000000
20
-28.644854
30
0.000000
40
2.046061
1
Lot frontage 103.88 feet approximate_tax_map Front lot line assumed to be the Northern Boulevard frontage (the address street); the lot is a corner lot with two frontages (215 Place 99.98 ft); which street is legally the front lot line is a qualified-review question.
0
TEXT
8
A-ANNO-NOTE
10
0.000000
20
-31.713945
30
0.000000
40
2.046061
1
Lot depth 100 feet city_records The lot depth of 100 feet is read from recorded city data.
0
TEXT
8
A-ANNO-NOTE
10
0.000000
20
-34.783037
30
0.000000
40
2.046061
1
Site measurement basis approximate tax map default The results carry the label of their weakest input; no survey or entered measurement was supplied, so the weakest recorded source sets the label.
0
TEXT
8
A-ANNO-NOTE
10
0.000000
20
-37.852128
30
0.000000
40
2.046061
1
Within 100 ft of a street-line intersection No approximate_tax_map Measured from the tax-map outline, the lot's farthest point is 144.60 feet from the corner where its two street lines meet, more than 100 feet from it.
0
TEXT
8
A-ANNO-NOTE
10
0.000000
20
-40.921220
30
0.000000
40
2.046061
1
Street-line intersection angle 89.7 degrees approximate_tax_map Measured from the tax-map outline, the lot's two street lines meet at about 89.7 degrees.
0
TEXT
8
A-ANNO-NOTE
10
0.000000
20
-43.990312
30
0.000000
40
2.046061
1
Housing program standard residence default Standard residence is used as the default housing program.
0
TEXT
8
A-ANNO-NOTE
10
0.000000
20
-47.059403
30
0.000000
40
2.046061
1
Floor-to-floor height 10 feet default A 10-foot floor-to-floor height is used as the default.
0
TEXT
8
A-ANNO-NOTE
10
0.000000
20
-50.128495
30
0.000000
40
2.046061
1
Based on the lots you selected - the app does not verify the zoning lot
0
TEXT
8
A-ANNO-NOTE
10
0.000000
20
-53.197586
30
0.000000
40
2.046061
1
Remaining development capacity: Not confirmed
0
TEXT
8
A-ANNO-NOTE
10
0.000000
20
-56.266678
30
0.000000
40
2.046061
1
Needs verified zoning-lot boundaries and existing zoning floor area.
0
TEXT
8
A-ANNO-NOTE
10
0.000000
20
-59.335769
30
0.000000
40
2.046061
1
Option opt-test - revision 1
0
TEXT
8
A-ANNO-NOTE
10
0.000000
20
-62.404860
30
0.000000
40
2.046061
1
Results res-215-16-northern-journey - computed 2026-10-03T00:00:00Z
0
TEXT
8
A-ANNO-NOTE
10
0.000000
20
-65.473952
30
0.000000
40
2.046061
1
Approximate - city tax map, not a survey (lot outline)
0
TEXT
8
A-ANNO-NOTE
10
0.000000
20
-68.543043
30
0.000000
40
2.046061
1
This lot has a recorded commercial overlay (C2-2); an independent reading of the commercial-overlay rear-yard rule for an all-residential building is owed before this result may be shown.
0
TEXT
8
A-ANNO-NOTE
10
0.000000
20
-71.612135
30
0.000000
40
2.046061
1
Setback lines need the ZR 23-433 setback depths, not encoded in this slice.
0
TEXT
8
A-ANNO-NOTE
10
0.000000
20
-74.681226
30
0.000000
40
2.046061
1
The lot reaches 103.93 ft from the 215 Place street line, beyond the corner-lot portion (the part within 100 ft of each intersecting street line), so there is no single whole-lot coverage figure: the near part is a corner-lot portion and the strip beyond is an interior-lot portion.
0
TEXT
8
A-ANNO-NOTE
10
0.000000
20
-77.750318
30
0.000000
40
2.046061
1
No building option is shown yet: the building option is below the minimum base height and has not been checked against an independently worked example, and its footprint needs the rear yard, which is not settled.
0
TEXT
8
A-ANNO-NOTE
10
0.000000
20
-80.819410
30
0.000000
40
2.046061
1
Coordinates: local plane in feet, origin at a lot corner, axes parallel to the EPSG:2263 grid
0
TEXT
8
A-ANNO-NOTE
10
0.000000
20
-83.888501
30
0.000000
40
2.046061
1
Units: feet, 1 drawing unit = 1 ft (scale 1:1)
0
TEXT
8
A-ANNO-NOTE
10
0.000000
20
-86.957593
30
0.000000
40
2.046061
1
Not a city record - drawn from the results
0
ENDSEC
0
EOF
