0
SECTION
2
HEADER
9
$ACADVER
1
AC1009
9
$INSUNITS
70
21
9
$EXTMIN
10
0.000000
20
-104.504908
30
0.000000
9
$EXTMAX
10
122.946934
20
120.663459
30
0.000000
0
ENDSEC
0
SECTION
2
TABLES
0
TABLE
2
VPORT
70
1
0
VPORT
2
*ACTIVE
70
0
10
0.000000
20
0.000000
11
1.000000
21
1.000000
12
61.473467
22
8.079276
13
0.000000
23
0.000000
14
1.000000
24
1.000000
15
10.000000
25
10.000000
16
0.000000
26
0.000000
36
1.000000
17
0.000000
27
0.000000
37
0.000000
40
247.685203
41
1.000000
42
50.000000
43
0.000000
44
0.000000
50
0.000000
51
0.000000
71
0
72
1000
73
1
74
3
75
0
76
0
77
0
78
0
0
ENDTAB
0
TABLE
2
LTYPE
70
1
0
LTYPE
2
CONTINUOUS
70
0
3
Solid line
72
65
73
0
40
0.000000
0
ENDTAB
0
TABLE
2
LAYER
70
2
0
LAYER
2
C-PROP-LINE
70
0
62
7
6
CONTINUOUS
0
LAYER
2
A-ANNO-NOTE
70
0
62
7
6
CONTINUOUS
0
ENDTAB
0
TABLE
2
STYLE
70
1
0
STYLE
2
STANDARD
70
0
40
0.000000
41
1.000000
50
0.000000
71
0
42
0.200000
3
txt
4

0
ENDTAB
0
ENDSEC
0
SECTION
2
ENTITIES
0
POLYLINE
8
C-PROP-LINE
66
1
70
1
10
0.000000
20
0.000000
30
0.000000
0
VERTEX
8
C-PROP-LINE
10
21.604298
20
0.000000
30
0.000000
0
VERTEX
8
C-PROP-LINE
10
23.773259
20
0.493746
30
0.000000
0
VERTEX
8
C-PROP-LINE
10
122.946934
20
23.061306
30
0.000000
0
VERTEX
8
C-PROP-LINE
10
101.289814
20
120.663459
30
0.000000
0
VERTEX
8
C-PROP-LINE
10
0.000000
20
97.614285
30
0.000000
0
SEQEND
8
C-PROP-LINE
0
TEXT
8
A-ANNO-NOTE
10
0.000000
20
-4.917878
30
0.000000
40
2.458939
1
Tax-lot-only estimate
0
TEXT
8
A-ANNO-NOTE
10
0.000000
20
-8.606286
30
0.000000
40
2.458939
1
Queens block 7334, lot 70
0
TEXT
8
A-ANNO-NOTE
10
0.000000
20
-12.294695
30
0.000000
40
2.458939
1
Assumed conditions
0
TEXT
8
A-ANNO-NOTE
10
0.000000
20
-15.983104
30
0.000000
40
2.458939
1
Zoning district R6B city_records Zoning district R6B is read from recorded city data.
0
TEXT
8
A-ANNO-NOTE
10
0.000000
20
-19.671512
30
0.000000
40
2.458939
1
Commercial overlay present Yes city_records A commercial overlay (C2-2) is recorded for this lot in the city's records.
0
TEXT
8
A-ANNO-NOTE
10
0.000000
20
-23.359921
30
0.000000
40
2.458939
1
Special purpose district No city_records The city's records list no special purpose district for this lot.
0
TEXT
8
A-ANNO-NOTE
10
0.000000
20
-27.048329
30
0.000000
40
2.458939
1
Special density area Not known assumed Whether the lot is in a special density area is not known; it is taken to be in one for the calculation, so the legal dwelling-unit limit that depends on it is withheld.
0
TEXT
8
A-ANNO-NOTE
10
0.000000
20
-30.736737
30
0.000000
40
2.458939
1
Lot type corner approximate_tax_map The lot type (corner) is read from the approximate city tax-map outline.
0
TEXT
8
A-ANNO-NOTE
10
0.000000
20
-34.425146
30
0.000000
40
2.458939
1
Lot frontage 103.88 feet approximate_tax_map Front lot line assumed to be the Northern Boulevard frontage (the address street); the lot is a corner lot with two frontages (215 Place 99.98 ft); which street is legally the front lot line is a qualified-review question.
0
TEXT
8
A-ANNO-NOTE
10
0.000000
20
-38.113554
30
0.000000
40
2.458939
1
Lot depth 100 feet city_records The lot depth of 100 feet is read from recorded city data.
0
TEXT
8
A-ANNO-NOTE
10
0.000000
20
-41.801963
30
0.000000
40
2.458939
1
Site measurement basis approximate tax map default The results carry the label of their weakest input; no survey or entered measurement was supplied, so the weakest recorded source sets the label.
0
TEXT
8
A-ANNO-NOTE
10
0.000000
20
-45.490372
30
0.000000
40
2.458939
1
Within 100 ft of a street-line intersection No approximate_tax_map Measured from the tax-map outline, the lot's farthest point is 144.60 feet from the corner where its two street lines meet, more than 100 feet from it.
0
TEXT
8
A-ANNO-NOTE
10
0.000000
20
-49.178780
30
0.000000
40
2.458939
1
Street-line intersection angle 89.7 degrees approximate_tax_map Measured from the tax-map outline, the lot's two street lines meet at about 89.7 degrees.
0
TEXT
8
A-ANNO-NOTE
10
0.000000
20
-52.867189
30
0.000000
40
2.458939
1
Housing program standard residence default Standard residence is used as the default housing program.
0
TEXT
8
A-ANNO-NOTE
10
0.000000
20
-56.555597
30
0.000000
40
2.458939
1
Floor-to-floor height 10 feet default A 10-foot floor-to-floor height is used as the default.
0
TEXT
8
A-ANNO-NOTE
10
0.000000
20
-60.244006
30
0.000000
40
2.458939
1
Based on the lots you selected - the app does not verify the zoning lot
0
TEXT
8
A-ANNO-NOTE
10
0.000000
20
-63.932414
30
0.000000
40
2.458939
1
Remaining development capacity: Not confirmed
0
TEXT
8
A-ANNO-NOTE
10
0.000000
20
-67.620823
30
0.000000
40
2.458939
1
Needs verified zoning-lot boundaries and existing zoning floor area.
0
TEXT
8
A-ANNO-NOTE
10
0.000000
20
-71.309231
30
0.000000
40
2.458939
1
Option opt-test - revision 1
0
TEXT
8
A-ANNO-NOTE
10
0.000000
20
-74.997640
30
0.000000
40
2.458939
1
Results res-215-16-northern-journey - computed 2026-10-03T00:00:00Z
0
TEXT
8
A-ANNO-NOTE
10
0.000000
20
-78.686048
30
0.000000
40
2.458939
1
Approximate - city tax map, not a survey (lot outline)
0
TEXT
8
A-ANNO-NOTE
10
0.000000
20
-82.374457
30
0.000000
40
2.458939
1
The corner rear-yard waiver does not cover the whole lot: the far corner is 144.60 ft from the point where the two street lines meet, beyond the rear-yard waiver area (the waiver covers the area within 100 ft of that point); the two street lines meet at 89.7 degrees, within the waiver's limit of 135 degrees. For the part beyond the waiver area, whether a rear yard is required depends on this lot's exact lot lines and on which lot lines of the adjoining lots meet them. The program does not have those facts, so the rear yard is not known.
0
TEXT
8
A-ANNO-NOTE
10
0.000000
20
-86.062865
30
0.000000
40
2.458939
1
Setback lines need the ZR 23-433 setback depths, not encoded in this slice.
0
TEXT
8
A-ANNO-NOTE
10
0.000000
20
-89.751273
30
0.000000
40
2.458939
1
Not shown as a square-foot figure: the recorded lot area and the area measured from the tax-map outline disagree, and the outline's area is a drawing measure, never used in a zoning calculation in its place. By portion the law allows up to 100 percent coverage on the corner-lot portion (the part within 100 feet of each intersecting street line) and up to 80 percent on the rest (ZR 23-362, ZR 12-10).
0
TEXT
8
A-ANNO-NOTE
10
0.000000
20
-93.439682
30
0.000000
40
2.458939
1
No floor plate is drawn: no placement on the lot is worked for any building. The first-building alternatives worked for this lot are listed in building_alternatives, and any building of the method that was not worked is listed, with the reason, in buildings_not_worked.
0
TEXT
8
A-ANNO-NOTE
10
0.000000
20
-97.128090
30
0.000000
40
2.458939
1
Coordinates: local plane in feet, origin at a lot corner, axes parallel to the EPSG:2263 grid
0
TEXT
8
A-ANNO-NOTE
10
0.000000
20
-100.816499
30
0.000000
40
2.458939
1
Units: feet, 1 drawing unit = 1 ft (scale 1:1)
0
TEXT
8
A-ANNO-NOTE
10
0.000000
20
-104.504908
30
0.000000
40
2.458939
1
Not a city record - drawn from the results
0
ENDSEC
0
EOF
