0
SECTION
2
HEADER
9
$ACADVER
1
AC1009
9
$INSUNITS
70
21
9
$EXTMIN
10
0.000000
20
-19.000000
30
0.000000
9
$EXTMAX
10
50.000000
20
100.000000
30
55.000000
0
ENDSEC
0
SECTION
2
TABLES
0
TABLE
2
VPORT
70
1
0
VPORT
2
*ACTIVE
70
0
10
0.000000
20
0.000000
11
1.000000
21
1.000000
12
25.000000
22
40.500000
13
0.000000
23
0.000000
14
1.000000
24
1.000000
15
10.000000
25
10.000000
16
0.000000
26
0.000000
36
1.000000
17
0.000000
27
0.000000
37
0.000000
40
130.900000
41
1.000000
42
50.000000
43
0.000000
44
0.000000
50
0.000000
51
0.000000
71
0
72
1000
73
1
74
3
75
0
76
0
77
0
78
0
0
ENDTAB
0
TABLE
2
LTYPE
70
1
0
LTYPE
2
CONTINUOUS
70
0
3
Solid line
72
65
73
0
40
0.000000
0
ENDTAB
0
TABLE
2
LAYER
70
5
0
LAYER
2
C-PROP-LINE
70
0
62
7
6
CONTINUOUS
0
LAYER
2
A-ZONE-STBK-LINE-F05
70
0
62
1
6
CONTINUOUS
0
LAYER
2
A-ZONE-ENVL
70
0
62
5
6
CONTINUOUS
0
LAYER
2
A-MASS-RESI
70
0
62
2
6
CONTINUOUS
0
LAYER
2
A-ANNO-NOTE
70
0
62
7
6
CONTINUOUS
0
ENDTAB
0
TABLE
2
STYLE
70
1
0
STYLE
2
STANDARD
70
0
40
0.000000
41
1.000000
50
0.000000
71
0
42
0.200000
3
txt
4

0
ENDTAB
0
ENDSEC
0
SECTION
2
ENTITIES
0
POLYLINE
8
C-PROP-LINE
66
1
70
1
10
0.000000
20
0.000000
30
0.000000
0
VERTEX
8
C-PROP-LINE
10
0.000000
20
0.000000
30
0.000000
0
VERTEX
8
C-PROP-LINE
10
50.000000
20
0.000000
30
0.000000
0
VERTEX
8
C-PROP-LINE
10
50.000000
20
100.000000
30
0.000000
0
VERTEX
8
C-PROP-LINE
10
0.000000
20
100.000000
30
0.000000
0
SEQEND
8
C-PROP-LINE
0
POLYLINE
8
A-ZONE-ENVL
66
1
70
1
10
0.000000
20
0.000000
30
0.000000
0
VERTEX
8
A-ZONE-ENVL
10
0.000000
20
0.000000
30
0.000000
0
VERTEX
8
A-ZONE-ENVL
10
50.000000
20
0.000000
30
0.000000
0
VERTEX
8
A-ZONE-ENVL
10
50.000000
20
100.000000
30
0.000000
0
VERTEX
8
A-ZONE-ENVL
10
0.000000
20
100.000000
30
0.000000
0
SEQEND
8
A-ZONE-ENVL
0
POLYLINE
8
A-ZONE-ENVL
66
1
70
1
10
0.000000
20
0.000000
30
45.000000
0
VERTEX
8
A-ZONE-ENVL
10
0.000000
20
0.000000
30
45.000000
0
VERTEX
8
A-ZONE-ENVL
10
50.000000
20
0.000000
30
45.000000
0
VERTEX
8
A-ZONE-ENVL
10
50.000000
20
100.000000
30
45.000000
0
VERTEX
8
A-ZONE-ENVL
10
0.000000
20
100.000000
30
45.000000
0
SEQEND
8
A-ZONE-ENVL
0
POLYLINE
8
A-ZONE-ENVL
66
1
70
1
10
0.000000
20
0.000000
30
45.000000
0
VERTEX
8
A-ZONE-ENVL
10
15.000000
20
15.000000
30
45.000000
0
VERTEX
8
A-ZONE-ENVL
10
50.000000
20
15.000000
30
45.000000
0
VERTEX
8
A-ZONE-ENVL
10
50.000000
20
100.000000
30
45.000000
0
VERTEX
8
A-ZONE-ENVL
10
15.000000
20
100.000000
30
45.000000
0
SEQEND
8
A-ZONE-ENVL
0
POLYLINE
8
A-ZONE-ENVL
66
1
70
1
10
0.000000
20
0.000000
30
55.000000
0
VERTEX
8
A-ZONE-ENVL
10
15.000000
20
15.000000
30
55.000000
0
VERTEX
8
A-ZONE-ENVL
10
50.000000
20
15.000000
30
55.000000
0
VERTEX
8
A-ZONE-ENVL
10
50.000000
20
100.000000
30
55.000000
0
VERTEX
8
A-ZONE-ENVL
10
15.000000
20
100.000000
30
55.000000
0
SEQEND
8
A-ZONE-ENVL
0
POLYLINE
8
A-MASS-RESI
66
1
70
1
10
0.000000
20
0.000000
30
0.000000
0
VERTEX
8
A-MASS-RESI
10
0.000000
20
0.000000
30
0.000000
0
VERTEX
8
A-MASS-RESI
10
50.000000
20
0.000000
30
0.000000
0
VERTEX
8
A-MASS-RESI
10
50.000000
20
50.000000
30
0.000000
0
VERTEX
8
A-MASS-RESI
10
0.000000
20
50.000000
30
0.000000
0
SEQEND
8
A-MASS-RESI
0
POLYLINE
8
A-MASS-RESI
66
1
70
1
10
0.000000
20
0.000000
30
12.000000
0
VERTEX
8
A-MASS-RESI
10
0.000000
20
0.000000
30
12.000000
0
VERTEX
8
A-MASS-RESI
10
50.000000
20
0.000000
30
12.000000
0
VERTEX
8
A-MASS-RESI
10
50.000000
20
50.000000
30
12.000000
0
VERTEX
8
A-MASS-RESI
10
0.000000
20
50.000000
30
12.000000
0
SEQEND
8
A-MASS-RESI
0
POLYLINE
8
A-MASS-RESI
66
1
70
1
10
0.000000
20
0.000000
30
22.000000
0
VERTEX
8
A-MASS-RESI
10
0.000000
20
0.000000
30
22.000000
0
VERTEX
8
A-MASS-RESI
10
50.000000
20
0.000000
30
22.000000
0
VERTEX
8
A-MASS-RESI
10
50.000000
20
50.000000
30
22.000000
0
VERTEX
8
A-MASS-RESI
10
0.000000
20
50.000000
30
22.000000
0
SEQEND
8
A-MASS-RESI
0
POLYLINE
8
A-MASS-RESI
66
1
70
1
10
0.000000
20
0.000000
30
32.000000
0
VERTEX
8
A-MASS-RESI
10
0.000000
20
0.000000
30
32.000000
0
VERTEX
8
A-MASS-RESI
10
50.000000
20
0.000000
30
32.000000
0
VERTEX
8
A-MASS-RESI
10
50.000000
20
50.000000
30
32.000000
0
VERTEX
8
A-MASS-RESI
10
0.000000
20
50.000000
30
32.000000
0
SEQEND
8
A-MASS-RESI
0
LINE
8
A-ZONE-STBK-LINE-F05
10
15.000000
20
15.000000
30
0.000000
11
50.000000
21
15.000000
31
0.000000
0
LINE
8
A-ZONE-STBK-LINE-F05
10
15.000000
20
15.000000
30
0.000000
11
15.000000
21
100.000000
31
0.000000
0
LINE
8
A-ZONE-ENVL
10
0.000000
20
0.000000
30
0.000000
11
0.000000
21
0.000000
31
45.000000
0
LINE
8
A-ZONE-ENVL
10
50.000000
20
0.000000
30
0.000000
11
50.000000
21
0.000000
31
45.000000
0
LINE
8
A-ZONE-ENVL
10
50.000000
20
100.000000
30
0.000000
11
50.000000
21
100.000000
31
45.000000
0
LINE
8
A-ZONE-ENVL
10
0.000000
20
100.000000
30
0.000000
11
0.000000
21
100.000000
31
45.000000
0
LINE
8
A-ZONE-ENVL
10
15.000000
20
15.000000
30
45.000000
11
15.000000
21
15.000000
31
55.000000
0
LINE
8
A-ZONE-ENVL
10
50.000000
20
15.000000
30
45.000000
11
50.000000
21
15.000000
31
55.000000
0
LINE
8
A-ZONE-ENVL
10
50.000000
20
100.000000
30
45.000000
11
50.000000
21
100.000000
31
55.000000
0
LINE
8
A-ZONE-ENVL
10
15.000000
20
100.000000
30
45.000000
11
15.000000
21
100.000000
31
55.000000
0
TEXT
8
A-ANNO-NOTE
10
0.000000
20
-4.000000
30
0.000000
40
2.000000
1
Option opt-a - revision 3
0
TEXT
8
A-ANNO-NOTE
10
0.000000
20
-7.000000
30
0.000000
40
2.000000
1
Results test-fixture-synthetic-results-001 - computed 2026-09-30T12:06:00Z
0
TEXT
8
A-ANNO-NOTE
10
0.000000
20
-10.000000
30
0.000000
40
2.000000
1
Approximate - city tax map, not a survey (lot outline, setback lines, envelope, floor plates)
0
TEXT
8
A-ANNO-NOTE
10
0.000000
20
-13.000000
30
0.000000
40
2.000000
1
Coordinates: local plane in feet, origin at a lot corner, axes parallel to the EPSG:2263 grid
0
TEXT
8
A-ANNO-NOTE
10
0.000000
20
-16.000000
30
0.000000
40
2.000000
1
Units: feet, 1 drawing unit = 1 ft (scale 1:1)
0
TEXT
8
A-ANNO-NOTE
10
0.000000
20
-19.000000
30
0.000000
40
2.000000
1
Not a city record - drawn from the results
0
ENDSEC
0
EOF
