0
SECTION
2
HEADER
9
$ACADVER
1
AC1009
9
$INSUNITS
70
21
9
$EXTMIN
10
1000000.000000
20
199974.812500
30
0.000000
9
$EXTMAX
10
1000080.500000
20
200100.750000
30
21.000000
0
ENDSEC
0
SECTION
2
TABLES
0
TABLE
2
VPORT
70
1
0
VPORT
2
*ACTIVE
70
0
10
0.000000
20
0.000000
11
1.000000
21
1.000000
12
1000040.250000
22
200037.781250
13
0.000000
23
0.000000
14
1.000000
24
1.000000
15
10.000000
25
10.000000
16
0.000000
26
0.000000
36
1.000000
17
0.000000
27
0.000000
37
0.000000
40
138.531250
41
1.000000
42
50.000000
43
0.000000
44
0.000000
50
0.000000
51
0.000000
71
0
72
1000
73
1
74
3
75
0
76
0
77
0
78
0
0
ENDTAB
0
TABLE
2
LTYPE
70
1
0
LTYPE
2
CONTINUOUS
70
0
3
Solid line
72
65
73
0
40
0.000000
0
ENDTAB
0
TABLE
2
LAYER
70
4
0
LAYER
2
C-PROP-LINE
70
0
62
7
6
CONTINUOUS
0
LAYER
2
A-ZONE-STBK-LINE-F03
70
0
62
1
6
CONTINUOUS
0
LAYER
2
A-MASS-RESI
70
0
62
2
6
CONTINUOUS
0
LAYER
2
A-ANNO-NOTE
70
0
62
7
6
CONTINUOUS
0
ENDTAB
0
TABLE
2
STYLE
70
1
0
STYLE
2
STANDARD
70
0
40
0.000000
41
1.000000
50
0.000000
71
0
42
0.200000
3
txt
4

0
ENDTAB
0
ENDSEC
0
SECTION
2
ENTITIES
0
POLYLINE
8
C-PROP-LINE
66
1
70
1
10
0.000000
20
0.000000
30
0.000000
0
VERTEX
8
C-PROP-LINE
10
1000000.000000
20
200000.000000
30
0.000000
0
VERTEX
8
C-PROP-LINE
10
1000080.500000
20
200000.000000
30
0.000000
0
VERTEX
8
C-PROP-LINE
10
1000080.500000
20
200060.250000
30
0.000000
0
VERTEX
8
C-PROP-LINE
10
1000030.000000
20
200100.750000
30
0.000000
0
VERTEX
8
C-PROP-LINE
10
1000000.000000
20
200100.750000
30
0.000000
0
SEQEND
8
C-PROP-LINE
0
POLYLINE
8
A-MASS-RESI
66
1
70
1
10
0.000000
20
0.000000
30
0.000000
0
VERTEX
8
A-MASS-RESI
10
1000000.000000
20
200000.000000
30
0.000000
0
VERTEX
8
A-MASS-RESI
10
1000060.000000
20
200000.000000
30
0.000000
0
VERTEX
8
A-MASS-RESI
10
1000060.000000
20
200030.000000
30
0.000000
0
VERTEX
8
A-MASS-RESI
10
1000030.000000
20
200030.000000
30
0.000000
0
VERTEX
8
A-MASS-RESI
10
1000030.000000
20
200070.000000
30
0.000000
0
VERTEX
8
A-MASS-RESI
10
1000000.000000
20
200070.000000
30
0.000000
0
SEQEND
8
A-MASS-RESI
0
POLYLINE
8
A-MASS-RESI
66
1
70
1
10
0.000000
20
0.000000
30
11.000000
0
VERTEX
8
A-MASS-RESI
10
1000000.000000
20
200000.000000
30
11.000000
0
VERTEX
8
A-MASS-RESI
10
1000060.000000
20
200000.000000
30
11.000000
0
VERTEX
8
A-MASS-RESI
10
1000060.000000
20
200030.000000
30
11.000000
0
VERTEX
8
A-MASS-RESI
10
1000030.000000
20
200030.000000
30
11.000000
0
VERTEX
8
A-MASS-RESI
10
1000030.000000
20
200070.000000
30
11.000000
0
VERTEX
8
A-MASS-RESI
10
1000000.000000
20
200070.000000
30
11.000000
0
SEQEND
8
A-MASS-RESI
0
POLYLINE
8
A-MASS-RESI
66
1
70
1
10
0.000000
20
0.000000
30
21.000000
0
VERTEX
8
A-MASS-RESI
10
1000000.000000
20
200000.000000
30
21.000000
0
VERTEX
8
A-MASS-RESI
10
1000060.000000
20
200000.000000
30
21.000000
0
VERTEX
8
A-MASS-RESI
10
1000060.000000
20
200030.000000
30
21.000000
0
VERTEX
8
A-MASS-RESI
10
1000030.000000
20
200030.000000
30
21.000000
0
VERTEX
8
A-MASS-RESI
10
1000030.000000
20
200070.000000
30
21.000000
0
VERTEX
8
A-MASS-RESI
10
1000000.000000
20
200070.000000
30
21.000000
0
SEQEND
8
A-MASS-RESI
0
LINE
8
A-ZONE-STBK-LINE-F03
10
1000010.000000
20
200010.000000
30
0.000000
11
1000070.500000
21
200010.000000
31
0.000000
0
TEXT
8
A-ANNO-NOTE
10
1000000.000000
20
199995.970000
30
0.000000
40
2.015000
1
Option opt-a - revision 3
0
TEXT
8
A-ANNO-NOTE
10
1000000.000000
20
199992.947500
30
0.000000
40
2.015000
1
Results test-fixture-synthetic-drawing-kit-b - computed 2026-09-30T12:06:00Z
0
TEXT
8
A-ANNO-NOTE
10
1000000.000000
20
199989.925000
30
0.000000
40
2.015000
1
Approximate - city tax map, not a survey (lot outline, setback lines, floor plates)
0
TEXT
8
A-ANNO-NOTE
10
1000000.000000
20
199986.902500
30
0.000000
40
2.015000
1
Yards not available - yard rules for this district are not built yet.
0
TEXT
8
A-ANNO-NOTE
10
1000000.000000
20
199983.880000
30
0.000000
40
2.015000
1
Envelope not available - height rules for this district are not built yet.
0
TEXT
8
A-ANNO-NOTE
10
1000000.000000
20
199980.857500
30
0.000000
40
2.015000
1
Coordinates: EPSG:2263 NAD83 New York Long Island, US survey feet
0
TEXT
8
A-ANNO-NOTE
10
1000000.000000
20
199977.835000
30
0.000000
40
2.015000
1
Units: feet, 1 drawing unit = 1 ft (scale 1:1)
0
TEXT
8
A-ANNO-NOTE
10
1000000.000000
20
199974.812500
30
0.000000
40
2.015000
1
Not a city record - drawn from the results
0
ENDSEC
0
EOF
