0
SECTION
2
HEADER
9
$ACADVER
1
AC1009
9
$INSUNITS
70
21
9
$EXTMIN
10
988000.000000
20
209987.000000
30
0.000000
9
$EXTMAX
10
988100.000000
20
210080.000000
30
42.000000
0
ENDSEC
0
SECTION
2
TABLES
0
TABLE
2
VPORT
70
1
0
VPORT
2
*ACTIVE
70
0
10
0.000000
20
0.000000
11
1.000000
21
1.000000
12
988050.000000
22
210033.500000
13
0.000000
23
0.000000
14
1.000000
24
1.000000
15
10.000000
25
10.000000
16
0.000000
26
0.000000
36
1.000000
17
0.000000
27
0.000000
37
0.000000
40
110.000000
41
1.000000
42
50.000000
43
0.000000
44
0.000000
50
0.000000
51
0.000000
71
0
72
1000
73
1
74
3
75
0
76
0
77
0
78
0
0
ENDTAB
0
TABLE
2
LTYPE
70
1
0
LTYPE
2
CONTINUOUS
70
0
3
Solid line
72
65
73
0
40
0.000000
0
ENDTAB
0
TABLE
2
LAYER
70
4
0
LAYER
2
LOT
70
0
62
7
6
CONTINUOUS
0
LAYER
2
BUILDING_OUTLINE
70
0
62
5
6
CONTINUOUS
0
LAYER
2
MASSING_3D
70
0
62
3
6
CONTINUOUS
0
LAYER
2
ANNOTATION
70
0
62
2
6
CONTINUOUS
0
ENDTAB
0
TABLE
2
STYLE
70
1
0
STYLE
2
STANDARD
70
0
40
0.000000
41
1.000000
50
0.000000
71
0
42
0.200000
3
txt
4

0
ENDTAB
0
ENDSEC
0
SECTION
2
ENTITIES
0
POLYLINE
8
LOT
66
1
70
1
10
0.000000
20
0.000000
30
0.000000
0
VERTEX
8
LOT
10
988000.000000
20
210000.000000
30
0.000000
0
VERTEX
8
LOT
10
988100.000000
20
210000.000000
30
0.000000
0
VERTEX
8
LOT
10
988100.000000
20
210080.000000
30
0.000000
0
VERTEX
8
LOT
10
988000.000000
20
210080.000000
30
0.000000
0
SEQEND
8
LOT
0
POLYLINE
8
BUILDING_OUTLINE
66
1
70
1
10
0.000000
20
0.000000
30
0.000000
0
VERTEX
8
BUILDING_OUTLINE
10
988020.000000
20
210020.000000
30
0.000000
0
VERTEX
8
BUILDING_OUTLINE
10
988080.000000
20
210020.000000
30
0.000000
0
VERTEX
8
BUILDING_OUTLINE
10
988080.000000
20
210060.000000
30
0.000000
0
VERTEX
8
BUILDING_OUTLINE
10
988020.000000
20
210060.000000
30
0.000000
0
SEQEND
8
BUILDING_OUTLINE
0
POLYLINE
8
MASSING_3D
66
1
70
1
10
0.000000
20
0.000000
30
0.000000
0
VERTEX
8
MASSING_3D
10
988020.000000
20
210020.000000
30
0.000000
0
VERTEX
8
MASSING_3D
10
988080.000000
20
210020.000000
30
0.000000
0
VERTEX
8
MASSING_3D
10
988080.000000
20
210060.000000
30
0.000000
0
VERTEX
8
MASSING_3D
10
988020.000000
20
210060.000000
30
0.000000
0
SEQEND
8
MASSING_3D
0
POLYLINE
8
MASSING_3D
66
1
70
1
10
0.000000
20
0.000000
30
12.000000
0
VERTEX
8
MASSING_3D
10
988020.000000
20
210020.000000
30
12.000000
0
VERTEX
8
MASSING_3D
10
988080.000000
20
210020.000000
30
12.000000
0
VERTEX
8
MASSING_3D
10
988080.000000
20
210060.000000
30
12.000000
0
VERTEX
8
MASSING_3D
10
988020.000000
20
210060.000000
30
12.000000
0
SEQEND
8
MASSING_3D
0
POLYLINE
8
MASSING_3D
66
1
70
1
10
0.000000
20
0.000000
30
22.000000
0
VERTEX
8
MASSING_3D
10
988020.000000
20
210020.000000
30
22.000000
0
VERTEX
8
MASSING_3D
10
988080.000000
20
210020.000000
30
22.000000
0
VERTEX
8
MASSING_3D
10
988080.000000
20
210060.000000
30
22.000000
0
VERTEX
8
MASSING_3D
10
988020.000000
20
210060.000000
30
22.000000
0
SEQEND
8
MASSING_3D
0
POLYLINE
8
MASSING_3D
66
1
70
1
10
0.000000
20
0.000000
30
32.000000
0
VERTEX
8
MASSING_3D
10
988020.000000
20
210020.000000
30
32.000000
0
VERTEX
8
MASSING_3D
10
988080.000000
20
210020.000000
30
32.000000
0
VERTEX
8
MASSING_3D
10
988080.000000
20
210060.000000
30
32.000000
0
VERTEX
8
MASSING_3D
10
988020.000000
20
210060.000000
30
32.000000
0
SEQEND
8
MASSING_3D
0
POLYLINE
8
MASSING_3D
66
1
70
1
10
0.000000
20
0.000000
30
42.000000
0
VERTEX
8
MASSING_3D
10
988020.000000
20
210020.000000
30
42.000000
0
VERTEX
8
MASSING_3D
10
988080.000000
20
210020.000000
30
42.000000
0
VERTEX
8
MASSING_3D
10
988080.000000
20
210060.000000
30
42.000000
0
VERTEX
8
MASSING_3D
10
988020.000000
20
210060.000000
30
42.000000
0
SEQEND
8
MASSING_3D
0
3DFACE
8
MASSING_3D
10
988020.000000
20
210020.000000
30
0.000000
11
988080.000000
21
210020.000000
31
0.000000
12
988080.000000
22
210020.000000
32
12.000000
13
988020.000000
23
210020.000000
33
12.000000
0
3DFACE
8
MASSING_3D
10
988080.000000
20
210020.000000
30
0.000000
11
988080.000000
21
210060.000000
31
0.000000
12
988080.000000
22
210060.000000
32
12.000000
13
988080.000000
23
210020.000000
33
12.000000
0
3DFACE
8
MASSING_3D
10
988080.000000
20
210060.000000
30
0.000000
11
988020.000000
21
210060.000000
31
0.000000
12
988020.000000
22
210060.000000
32
12.000000
13
988080.000000
23
210060.000000
33
12.000000
0
3DFACE
8
MASSING_3D
10
988020.000000
20
210060.000000
30
0.000000
11
988020.000000
21
210020.000000
31
0.000000
12
988020.000000
22
210020.000000
32
12.000000
13
988020.000000
23
210060.000000
33
12.000000
0
3DFACE
8
MASSING_3D
10
988020.000000
20
210020.000000
30
12.000000
11
988080.000000
21
210020.000000
31
12.000000
12
988080.000000
22
210020.000000
32
22.000000
13
988020.000000
23
210020.000000
33
22.000000
0
3DFACE
8
MASSING_3D
10
988080.000000
20
210020.000000
30
12.000000
11
988080.000000
21
210060.000000
31
12.000000
12
988080.000000
22
210060.000000
32
22.000000
13
988080.000000
23
210020.000000
33
22.000000
0
3DFACE
8
MASSING_3D
10
988080.000000
20
210060.000000
30
12.000000
11
988020.000000
21
210060.000000
31
12.000000
12
988020.000000
22
210060.000000
32
22.000000
13
988080.000000
23
210060.000000
33
22.000000
0
3DFACE
8
MASSING_3D
10
988020.000000
20
210060.000000
30
12.000000
11
988020.000000
21
210020.000000
31
12.000000
12
988020.000000
22
210020.000000
32
22.000000
13
988020.000000
23
210060.000000
33
22.000000
0
3DFACE
8
MASSING_3D
10
988020.000000
20
210020.000000
30
22.000000
11
988080.000000
21
210020.000000
31
22.000000
12
988080.000000
22
210020.000000
32
32.000000
13
988020.000000
23
210020.000000
33
32.000000
0
3DFACE
8
MASSING_3D
10
988080.000000
20
210020.000000
30
22.000000
11
988080.000000
21
210060.000000
31
22.000000
12
988080.000000
22
210060.000000
32
32.000000
13
988080.000000
23
210020.000000
33
32.000000
0
3DFACE
8
MASSING_3D
10
988080.000000
20
210060.000000
30
22.000000
11
988020.000000
21
210060.000000
31
22.000000
12
988020.000000
22
210060.000000
32
32.000000
13
988080.000000
23
210060.000000
33
32.000000
0
3DFACE
8
MASSING_3D
10
988020.000000
20
210060.000000
30
22.000000
11
988020.000000
21
210020.000000
31
22.000000
12
988020.000000
22
210020.000000
32
32.000000
13
988020.000000
23
210060.000000
33
32.000000
0
3DFACE
8
MASSING_3D
10
988020.000000
20
210020.000000
30
32.000000
11
988080.000000
21
210020.000000
31
32.000000
12
988080.000000
22
210020.000000
32
42.000000
13
988020.000000
23
210020.000000
33
42.000000
0
3DFACE
8
MASSING_3D
10
988080.000000
20
210020.000000
30
32.000000
11
988080.000000
21
210060.000000
31
32.000000
12
988080.000000
22
210060.000000
32
42.000000
13
988080.000000
23
210020.000000
33
42.000000
0
3DFACE
8
MASSING_3D
10
988080.000000
20
210060.000000
30
32.000000
11
988020.000000
21
210060.000000
31
32.000000
12
988020.000000
22
210060.000000
32
42.000000
13
988080.000000
23
210060.000000
33
42.000000
0
3DFACE
8
MASSING_3D
10
988020.000000
20
210060.000000
30
32.000000
11
988020.000000
21
210020.000000
31
32.000000
12
988020.000000
22
210020.000000
32
42.000000
13
988020.000000
23
210060.000000
33
42.000000
0
LINE
8
MASSING_3D
10
988020.000000
20
210020.000000
30
0.000000
11
988020.000000
21
210020.000000
31
42.000000
0
LINE
8
MASSING_3D
10
988080.000000
20
210020.000000
30
0.000000
11
988080.000000
21
210020.000000
31
42.000000
0
LINE
8
MASSING_3D
10
988080.000000
20
210060.000000
30
0.000000
11
988080.000000
21
210060.000000
31
42.000000
0
LINE
8
MASSING_3D
10
988020.000000
20
210060.000000
30
0.000000
11
988020.000000
21
210060.000000
31
42.000000
0
TEXT
8
ANNOTATION
10
988000.000000
20
209996.000000
30
0.000000
40
2.000000
1
PROPOSED - NOT A CITY RECORD
0
TEXT
8
ANNOTATION
10
988000.000000
20
209993.000000
30
0.000000
40
2.000000
1
COORDINATES: EPSG:2263 NAD83 NY LONG ISLAND - US SURVEY FEET
0
TEXT
8
ANNOTATION
10
988000.000000
20
209990.000000
30
0.000000
40
2.000000
1
GENERATED BUILDING OPTION - NYC-BUILDABILITY DXF WRITER V1
0
TEXT
8
ANNOTATION
10
988000.000000
20
209987.000000
30
0.000000
40
2.000000
1
Example lot - not a real property
0
ENDSEC
0
EOF
